PathFileType	4	(X/Y/Z)	C:/Users/beibeiliu/ov580/test_trc/User3\sequence.7_training_dense_left.trc
DataRate	CameraRate	NumFrames	NumMarkers	Units	OrigDataRate	OrigDataStartFrame	OrigNumFrames
120	120	23	19	mm	120	1	200
Frame#	Time	ThumbCMC			ThumbMCP			ThumbIP			ThumbTip			IndexMCP			IndexPIP			IndexTip			MiddleMCP			MiddlePIP			MiddleTip			RingMCP			RingPIP			RingTip			PinkyMCP			PinkyPIP			PinkyTip			BackHand1			BackHand2			BackHand3	
		X0	Y0	Z0	X1	Y1	Z1	X2	Y2	Z2	X3	Y3	Z3	X4	Y4	Z4	X5	Y5	Z5	X6	Y6	Z6	X7	Y7	Z7	X8	Y8	Z8	X9	Y9	Z9	X10	Y10	Z10	X11	Y11	Z11	X12	Y12	Z12	X13	Y13	Z13	X14	Y14	Z14	X15	Y15	Z15	X16	Y16	Z16	X17	Y17	Z17	X18	Y18	Z18	
0	0	-140.389	-19.9565	10.5304	-125.46	-37.5759	-9.36101	-108.125	-51.7706	-30.5801	-101.44	-66.0775	-52.2737	-157.821	-4.45067	-65.8346	-148.359	-12.8392	-91.275	-143.332	-29.3028	-118.269	-180.232	0.7097	-71.4052	-178.364	-5.39459	-101.2	-178.109	-24.0156	-129.265	-203.261	-5.58357	-65.3761	-208.093	-11.6999	-88.518	-212.827	-30.3995	-110.79	-228.561	-16.083	-48.0002	-235.267	-24.8338	-65.2407	-237.814	-39.9736	-86.7002	-201.457	8.12569	-14.0761	-201.795	8.50366	21.1017	-169.271	8.43627	0.283051	
1	0.00833333	-142.93	-20.7206	8.91802	-125.168	-37.1301	-10.4059	-114.753	-51.2138	-32.0582	-106.14	-66.7412	-53.2183	-159.177	-4.00126	-66.8419	-150.954	-13.16	-95.1895	-147.108	-29.8964	-118.521	-180.599	1.14649	-73.2476	-178.97	-4.16818	-98.3661	-180.087	-24.7442	-128.505	-208.657	-5.47199	-62.6181	-208.313	-14.0426	-88.3205	-212.867	-38.4834	-112.356	-226.063	-16.1058	-44.0468	-236.448	-29.3221	-69.5452	-238.795	-45.6109	-84.1721	-204.52	6.44216	-9.46139	-202.044	8.84867	19.1388	-169.575	7.27701	-0.59883	
2	0.0166667	-144.344	-21.3395	11.2576	-128.983	-37.2071	-8.40478	-114.288	-53.2029	-35.898	-113.043	-65.7114	-51.5168	-155.031	-3.71616	-68.6899	-152.748	-10.9446	-92.3628	-144.786	-26.4661	-114.161	-184.364	2.89473	-68.989	-180.684	-3.74895	-98.7096	-178.354	-24.4636	-125.769	-203.783	-5.48923	-60.3297	-208.58	-19.6008	-90.9579	-211.403	-45.5417	-105.982	-228.058	-15.8466	-45.0277	-234.93	-31.7233	-67.4174	-230.218	-53.9073	-78.3145	-206.276	6.91434	-8.99854	-202.647	6.52563	19.7936	-172.157	7.03588	3.43466	
3	0.025	-141.979	-19.4765	6.7229	-131.694	-36.0198	-13.0745	-120.568	-50.7321	-37.2581	-118.942	-64.0313	-54.4988	-159.226	1.19881	-66.9543	-149.633	-6.68387	-94.4749	-151.347	-21.1747	-112.914	-183.413	5.79166	-66.041	-182.289	-1.59002	-99.7276	-181.758	-25.0038	-123.59	-203.333	-4.68663	-62.3117	-207.431	-21.8824	-88.4406	-204.555	-48.1128	-96.396	-222.384	-16.1511	-44.1776	-226.447	-33.2622	-68.212	-219.258	-60.6907	-70.6393	-205.877	6.73524	-10.723	-207.809	6.71399	20.3065	-172.137	9.57472	1.95398	
4	0.0333333	-146.357	-17.0537	10.1046	-131.983	-33.1766	-17.3798	-121.752	-47.3479	-40.4226	-123.878	-60.2013	-62.3062	-157.565	9.09374	-61.8854	-152.485	4.20368	-89.611	-147.052	-12.6365	-112.238	-181.652	12.9848	-69.9017	-179.714	2.8226	-100.214	-178.35	-18.7274	-121.219	-207.008	-3.79135	-60.8003	-202.909	-24.1326	-87.1079	-198.347	-55.4175	-82.8692	-224.607	-18.1027	-47.4446	-217.314	-36.1229	-64.9313	-205.546	-62.7321	-54.8718	-207.287	10.0443	-8.47705	-202.698	8.34677	20.2725	-173.413	11.3995	3.60619	
5	0.0416667	-144.207	-13.6053	3.46447	-130.878	-28.107	-20.0615	-123.415	-40.4862	-48.4016	-124.033	-53.5431	-68.8546	-156.954	15.49	-61.5332	-155.61	9.90789	-94.3891	-148.272	-4.09954	-113.835	-186.161	18.6889	-68.881	-181.592	14.6219	-98.4645	-182.041	-8.33533	-123.59	-206.789	-0.548425	-62.247	-203.772	-23.4613	-85.7207	-196.622	-51.1387	-78.0825	-219.822	-16.4791	-49.7642	-212.19	-37.5572	-62.8158	-199.141	-57.7004	-43.0118	-203.144	12.0511	-5.65565	-203.71	7.28695	21.9233	-169.282	14.0911	4.39414	
6	0.05	-139.486	-11.1814	-0.880151	-125.628	-25.6792	-25.6828	-120.496	-38.1014	-48.419	-121.939	-48.4834	-71.5962	-162.008	19.9909	-69.8752	-154.208	16.7222	-93.7637	-153.211	2.14597	-118.304	-189.132	24.2878	-70.5133	-184.981	23.8812	-97.6107	-185.01	3.78505	-129.841	-203.335	2.56727	-62.6646	-204.416	-20.0813	-86.2327	-191.327	-51.6033	-75.8544	-220.821	-18.2654	-51.9836	-207.691	-43.8358	-59.1523	-194.623	-55.1706	-37.1896	-201.06	11.8649	-7.77446	-203.002	7.12678	21.8331	-171.315	16.2947	3.43225	
7	0.0583333	-137.642	-13.622	-0.193332	-125.049	-30.058	-25.6067	-116.094	-43.3866	-54.8354	-117.67	-56.5721	-74.2709	-162.003	15.5344	-73.1209	-156.012	7.84285	-102.964	-157.883	-7.2187	-122.388	-188.735	20.6198	-73.3874	-189.12	18.5301	-101.572	-186.858	-5.62265	-133.529	-204.72	-3.21424	-66.0614	-208.717	-29.9355	-84.0062	-196.891	-56.5793	-71.1858	-220.392	-24.1934	-53.9789	-209.086	-47.1173	-56.4224	-192.153	-56.7116	-29.7155	-205.088	10.4853	-9.72617	-200.422	7.55804	17.6835	-166.538	16.022	-1.86894	
8	0.0666667	-138.443	-25.155	-1.6852	-127.384	-45.3693	-23.3558	-120.279	-62.028	-44.602	-120.252	-79.2763	-65.8152	-161.979	-11.9428	-74.2842	-158.39	-27.9949	-104.452	-154.795	-53.3064	-118.72	-188.024	-6.98459	-74.7561	-192.846	-20.9083	-107.043	-190.331	-51.2855	-123.386	-207.321	-29.4449	-65.8488	-208.649	-58.9896	-74.4862	-191.974	-79.1965	-51.5396	-222.076	-42.4982	-44.4733	-209.453	-67.852	-44.2727	-192.057	-70.1022	-16.8935	-201.997	-1.69974	-15.4573	-199.483	1.22534	17.1213	-167.204	2.55583	-5.74761	
9	0.075	-138.368	-29.0654	5.01977	-116.873	-52.1699	-10.2983	-103.905	-71.1713	-24.7924	-105.558	-92.785	-38.2467	-153.424	-44.4402	-71.3316	-149.422	-63.9189	-91.5458	-142.448	-93.2368	-98.8707	-178.685	-45.4185	-76.0155	-175.304	-68.4142	-97.9057	-169.941	-103.692	-97.9576	-194.427	-65.3279	-59.7027	-194.66	-95.4615	-55.419	-178.141	-100.624	-25.0064	-208.732	-70.0555	-35.5834	-194.128	-93.7561	-22.3134	-179.755	-81.1	-0.854111	-203.443	-21.643	-19.0509	-201.557	-9.50288	6.30459	-166.779	-8.8107	-9.7526	
10	0.0833333	-138.26	-16.4154	3.21906	-112.055	-32.2455	-2.93138	-90.4169	-50.6933	-12.5848	-79.7712	-74.0234	-20.3786	-141.856	-58.2869	-63.9523	-123.903	-76.8279	-76.9679	-108.07	-104.235	-73.5485	-161.692	-71.0273	-68.2325	-146.933	-93.8181	-79.0692	-130.68	-123.891	-66.9444	-175.069	-90.0994	-42.0071	-157.579	-112.09	-30.6157	-145.407	-99.52	1.05609	-183.657	-91.6994	-21.2904	-162.593	-101.775	-1.92695	-158.954	-78.6112	15.3159	-200.405	-42.3783	-19.522	-204.871	-25.777	1.31961	-174.883	-15.3934	-15.3352	
11	0.0916667	-155.158	-0.100993	1.7373	-120.375	2.31822	-5.05153	-92.8099	-7.14299	-12.6111	-76.8532	-27.0616	-15.4088	-132.689	-46.1665	-61.6381	-106.17	-58.3308	-70.9067	-84.1148	-70.3091	-64.14	-145.308	-66.8385	-59.7496	-118.442	-85.2124	-68.5975	-86.6289	-97.7919	-51.556	-148.239	-84.242	-32.3375	-120.421	-91.8954	-19.9435	-117.724	-76.543	9.98817	-149.361	-88.5841	-12.223	-132.841	-83.9194	5.549	-142.829	-58.8934	24.6155	-193.888	-54.9143	-19.0273	-209.288	-39.4791	3.20525	-181.222	-17.0049	-18.758	
12	0.1	-175.751	10.7406	-9.14803	-147.837	23.5003	-15.3372	-118.851	32.1277	-24.9951	-94.3046	23.1266	-29.4301	-138.462	-24.1414	-67.7979	-111.488	-21.616	-77.8929	-86.0915	-20.8825	-72.6812	-138.208	-46.9662	-63.6048	-106.501	-51.3606	-71.3901	-75.979	-47.2708	-60.4193	-130.994	-62.4503	-33.4801	-102.295	-49.8573	-22.4155	-105.844	-32.8349	4.68219	-133.726	-66.9656	-10.9863	-116.766	-50.9155	3.1296	-135.515	-28.9811	20.4795	-183.673	-52.34	-18.895	-206.27	-44.2666	6.28151	-195.143	-18.5692	-18.7011	
13	0.108333	-199.777	16.4614	-11.594	-178.503	40.3253	-27.7344	-154.837	53.7292	-41.5219	-128.753	54.4414	-46.4781	-155.718	-10.4431	-72.353	-134.47	2.2356	-88.7422	-106.79	19.2131	-88.2911	-142.318	-28.7308	-71.4233	-116.069	-17.2585	-83.2525	-89.4267	0.623009	-79.1673	-127.983	-31.5893	-43.4836	-107.276	-13.8059	-35.9121	-112.383	6.87133	-10.4323	-125.672	-32.853	-21.8728	-119.18	-11.0245	-4.30342	-140.929	-1.59765	10.9577	-177.732	-47.4131	-19.5073	-198.965	-47.8286	4.70635	-206.19	-22.7099	-19.7708	
14	0.116667	-214.832	11.5858	-15.4372	-204.272	37.3563	-31.6722	-186.807	56.9027	-49.8293	-163.339	63.1608	-59.2457	-168.987	-5.76078	-80.877	-154.392	10.3189	-98.4225	-136.359	33.4999	-103.511	-154.556	-19.6835	-75.8751	-133.896	-3.66136	-94.5698	-107.498	24.5002	-96.1733	-135.474	-16.0713	-52.8092	-118.588	9.72077	-49.1798	-126.52	28.9595	-27.0011	-125.867	-14.6173	-29.2678	-124.195	8.31436	-18.0708	-148.931	13.8189	5.60382	-172.739	-46.5294	-17.4506	-189.531	-45.1781	5.78735	-205.32	-28.5117	-20.3538	
15	0.125	-219.385	0.713391	-14.7493	-214.082	24.4956	-37.3021	-203.392	43.7577	-61.8269	-186.947	55.1028	-70.9521	-183.738	-17.6379	-83.2806	-175.028	-1.0812	-107.22	-156.223	23.0917	-117.46	-161.676	-31.1638	-78.0625	-147.943	-12.2923	-105.96	-131.073	14.6946	-113.796	-142.05	-20.4837	-59.2436	-131.127	8.01035	-64.3093	-136.719	30.4046	-40.8059	-130.142	-13.3419	-38.0125	-133.951	12.3375	-31.2659	-154.444	16.4825	-7.82293	-169.629	-47.3819	-20.3271	-182.76	-48.9938	8.89349	-205.688	-38.4003	-20.3751	
16	0.133333	-221.528	-15.8816	-12.2498	-220.022	3.40752	-43.6969	-215.113	16.456	-66.8669	-198.315	24.6128	-87.7952	-194.468	-47.627	-79.0853	-186.949	-35.7157	-110.317	-178.393	-15.0108	-125.967	-169.827	-58.168	-75.0699	-159.707	-49.3437	-107.433	-148.215	-21.9497	-124.841	-151.909	-40.0981	-66.2207	-139.012	-12.7076	-76.2508	-146.391	14.8985	-55.9798	-136.834	-28.4987	-47.3587	-139.049	-3.54195	-45.4867	-154.991	5.34339	-22.4067	-169.354	-61.4698	-12.7558	-178.145	-59.2072	11.7943	-203.015	-54.7971	-13.1237	
17	0.141667	-224.441	-30.9403	-12.2671	-223.179	-17.5276	-39.8097	-222.643	-9.46017	-68.9783	-211.192	-5.38282	-93.9274	-210.245	-77.1879	-70.3207	-204.28	-74.3077	-104.161	-197.845	-57.4481	-124.303	-183.892	-90.7111	-71.5196	-179.947	-88.0768	-101.251	-165.147	-63.0762	-127.955	-159.573	-70.7038	-64.9347	-150.478	-48.7753	-82.6005	-157.806	-16.2831	-71.7164	-146.904	-57.7581	-49.4573	-146.002	-28.1356	-54.3146	-156.559	-14.09	-35.5503	-175.255	-79.5496	-9.34859	-176.661	-70.3442	18.0458	-205.614	-69.2995	-2.27482	
18	0.15	-231.267	-38.9228	-9.66055	-228.474	-30.5019	-37.3129	-230.722	-26.2313	-71.9664	-219.325	-29.2288	-91.583	-229.625	-94.2457	-58.7096	-231.038	-97.1587	-91.738	-219.136	-85.4291	-116.319	-209.828	-110.809	-57.4114	-204.048	-114.797	-93.2153	-193.812	-99.5741	-118.027	-181.471	-97.0178	-56.3022	-168.134	-78.055	-80.4179	-166.631	-43.4277	-74.2192	-163.174	-84.3871	-46.0722	-160.976	-57.3451	-57.4149	-165.185	-36.8728	-42.6195	-191.911	-92.723	0.0888769	-188.656	-80.5905	27.7191	-217.149	-75.6677	6.59921	
19	0.158333	-232.646	-35.3559	-5.57096	-232.634	-27.3032	-37.5888	-232.903	-27.3529	-67.1368	-226.887	-32.4141	-91.6539	-257.68	-93.6474	-54.0838	-260.451	-94.2891	-81.1665	-246.03	-87.0855	-108.465	-246.261	-112.977	-51.8664	-247.95	-114.302	-83.1076	-230.258	-107.237	-111.381	-211.97	-110.55	-52.9226	-199.93	-99.0045	-74.61	-182.328	-67.7813	-73.9704	-190.666	-105.742	-39.7221	-178.048	-84.6819	-54.9235	-172.132	-59.2516	-41.2382	-219.559	-101.064	6.09436	-208.124	-82.0017	32.4564	-239.757	-68.6875	13.0087	
20	0.166667	-224.807	-24.8504	-3.14624	-223.249	-19.7058	-40.0012	-223.914	-18.5299	-70.012	-220.266	-26.8957	-93.9254	-275.093	-62.0286	-48.6083	-278.211	-65.1247	-83.1707	-261.791	-64.0639	-108.647	-273.954	-86.759	-47.4317	-279.253	-85.906	-80.1089	-258.527	-87.5302	-111.127	-245.24	-99.6002	-47.8251	-224.629	-96.638	-74.6662	-200.75	-78.1811	-73.0364	-223.712	-105.686	-38.3061	-203.266	-93.5969	-52.608	-188.325	-71.7987	-42.2339	-243.735	-87.1928	7.44145	-229.155	-77.4836	30.8574	-249.212	-54.7952	12.4297	
21	0.175	-213.243	-14.457	-6.10948	-204.037	-13.5298	-34.7735	-202.623	-9.78229	-67.5244	-201.846	-18.112	-88.0379	-272.11	-19.4724	-53.0423	-273.573	-15.4253	-83.1816	-260.456	-22.3535	-108.263	-284.351	-38.2588	-53.3996	-286.043	-42.3565	-85.2518	-268.706	-49.5842	-112.689	-265.065	-67.8792	-49.9276	-244.748	-74.1398	-76.3752	-214.089	-74.705	-72.3784	-248.791	-83.6508	-43.5073	-223.259	-81.0355	-53.8108	-203.015	-73.8372	-39.53	-260.905	-60.1465	4.64016	-241.338	-61.4782	32.0665	-246.059	-29.4144	12.3343	
22	0.183333	-194.077	-8.27142	-4.33832	-187.3	-7.22	-38.5426	-180.716	-4.66697	-68.2602	-182.326	-10.7375	-93.512	-245.384	17.5689	-52.3349	-245.994	21.1144	-84.6471	-236.804	9.95667	-108.793	-266.552	3.32341	-55.8799	-271.231	1.14331	-85.1879	-256.184	-14.5399	-118.741	-261.89	-27.7678	-53.5487	-249.766	-45.0809	-78.9189	-219.343	-55.8841	-74.672	-258.134	-54.1483	-47.6097	-231.678	-62.1037	-54.9928	-211.528	-64.1946	-37.3767	-261.533	-28.8192	1.7073	-245.553	-37.0078	30.6292	-232.774	-4.83876	11.1545	
